<mxfile host="Electron" agent="Mozilla/5.0 (Windows NT 10.0; Win64; x64) AppleWebKit/537.36 (KHTML, like Gecko) draw.io/26.0.16 Chrome/132.0.6834.196 Electron/34.2.0 Safari/537.36" version="26.0.16">
  <diagram name="Page-1" id="VYTlO3MbTIjUhsgyIBTx">
    <mxGraphModel dx="864" dy="508" grid="1" gridSize="10" guides="1" tooltips="1" connect="1" arrows="1" fold="1" page="1" pageScale="1" pageWidth="850" pageHeight="1100" math="0" shadow="0">
      <root>
        <mxCell id="0" />
        <mxCell id="1" parent="0" />
        <mxCell id="DM5Adh0Ml4Y8m7HZLW4B-1" value="" style="rounded=0;whiteSpace=wrap;html=1;" vertex="1" parent="1">
          <mxGeometry x="40" y="40" width="90" height="400" as="geometry" />
        </mxCell>
        <mxCell id="DM5Adh0Ml4Y8m7HZLW4B-3" value="" style="rounded=0;whiteSpace=wrap;html=1;" vertex="1" parent="1">
          <mxGeometry x="190" y="42.5" width="170" height="400" as="geometry" />
        </mxCell>
        <mxCell id="DM5Adh0Ml4Y8m7HZLW4B-4" value="" style="rounded=0;whiteSpace=wrap;html=1;" vertex="1" parent="1">
          <mxGeometry x="440" y="37.5" width="160" height="405" as="geometry" />
        </mxCell>
        <mxCell id="DM5Adh0Ml4Y8m7HZLW4B-5" value="" style="rounded=0;whiteSpace=wrap;html=1;" vertex="1" parent="1">
          <mxGeometry x="650" y="40" width="170" height="400" as="geometry" />
        </mxCell>
        <mxCell id="DM5Adh0Ml4Y8m7HZLW4B-6" value="DATAFLOW DIAGRAM" style="text;html=1;whiteSpace=wrap;overflow=hidden;rounded=0;" vertex="1" parent="1">
          <mxGeometry x="10" width="170" height="110" as="geometry" />
        </mxCell>
        <mxCell id="DM5Adh0Ml4Y8m7HZLW4B-7" value="" style="image;aspect=fixed;html=1;points=[];align=center;fontSize=12;image=img/lib/azure2/general/Folder_Blank.svg;" vertex="1" parent="1">
          <mxGeometry x="59.65" y="115" width="61.61" height="50" as="geometry" />
        </mxCell>
        <mxCell id="DM5Adh0Ml4Y8m7HZLW4B-8" value="" style="image;aspect=fixed;html=1;points=[];align=center;fontSize=12;image=img/lib/azure2/general/Folder_Blank.svg;" vertex="1" parent="1">
          <mxGeometry x="59.65" y="295" width="61.61" height="50" as="geometry" />
        </mxCell>
        <mxCell id="DM5Adh0Ml4Y8m7HZLW4B-9" value="CRM" style="text;html=1;align=center;verticalAlign=middle;whiteSpace=wrap;rounded=0;" vertex="1" parent="1">
          <mxGeometry x="55.00000000000001" y="160" width="60" height="20" as="geometry" />
        </mxCell>
        <mxCell id="DM5Adh0Ml4Y8m7HZLW4B-10" value="ERP" style="text;html=1;align=center;verticalAlign=middle;whiteSpace=wrap;rounded=0;" vertex="1" parent="1">
          <mxGeometry x="55.010000000000005" y="330" width="60" height="20" as="geometry" />
        </mxCell>
        <mxCell id="DM5Adh0Ml4Y8m7HZLW4B-11" value="Bronze layer" style="text;html=1;align=center;verticalAlign=middle;whiteSpace=wrap;rounded=0;" vertex="1" parent="1">
          <mxGeometry x="225" y="12.5" width="100" height="30" as="geometry" />
        </mxCell>
        <mxCell id="DM5Adh0Ml4Y8m7HZLW4B-12" value="Silver Layer" style="text;html=1;align=center;verticalAlign=middle;whiteSpace=wrap;rounded=0;fillColor=#60a917;fontColor=#ffffff;strokeColor=#2D7600;" vertex="1" parent="1">
          <mxGeometry x="470" y="7.5" width="100" height="30" as="geometry" />
        </mxCell>
        <mxCell id="DM5Adh0Ml4Y8m7HZLW4B-13" value="Gold Layer" style="text;html=1;align=center;verticalAlign=middle;whiteSpace=wrap;rounded=0;fillColor=#d80073;strokeColor=#A50040;fontColor=#ffffff;" vertex="1" parent="1">
          <mxGeometry x="680" y="10" width="100" height="30" as="geometry" />
        </mxCell>
        <mxCell id="DM5Adh0Ml4Y8m7HZLW4B-14" value="CRM Sales details" style="rounded=1;whiteSpace=wrap;html=1;" vertex="1" parent="1">
          <mxGeometry x="205" y="70" width="140" height="40" as="geometry" />
        </mxCell>
        <mxCell id="DM5Adh0Ml4Y8m7HZLW4B-15" value="CRM_cust_info" style="rounded=1;whiteSpace=wrap;html=1;" vertex="1" parent="1">
          <mxGeometry x="205" y="120" width="140" height="40" as="geometry" />
        </mxCell>
        <mxCell id="DM5Adh0Ml4Y8m7HZLW4B-16" value="CRM_prd_info" style="rounded=1;whiteSpace=wrap;html=1;" vertex="1" parent="1">
          <mxGeometry x="205" y="170" width="140" height="40" as="geometry" />
        </mxCell>
        <mxCell id="DM5Adh0Ml4Y8m7HZLW4B-17" value="ERP_cust_az12" style="rounded=1;whiteSpace=wrap;html=1;" vertex="1" parent="1">
          <mxGeometry x="205" y="250" width="140" height="40" as="geometry" />
        </mxCell>
        <mxCell id="DM5Adh0Ml4Y8m7HZLW4B-18" value="ERP_loc_a101" style="rounded=1;whiteSpace=wrap;html=1;" vertex="1" parent="1">
          <mxGeometry x="205" y="300" width="140" height="40" as="geometry" />
        </mxCell>
        <mxCell id="DM5Adh0Ml4Y8m7HZLW4B-19" value="ERP_px_cat_g1v1" style="rounded=1;whiteSpace=wrap;html=1;" vertex="1" parent="1">
          <mxGeometry x="205" y="360" width="140" height="40" as="geometry" />
        </mxCell>
        <mxCell id="DM5Adh0Ml4Y8m7HZLW4B-21" value="CRM Sales details" style="rounded=1;whiteSpace=wrap;html=1;fillColor=#60a917;fontColor=#ffffff;strokeColor=#2D7600;" vertex="1" parent="1">
          <mxGeometry x="450" y="70" width="140" height="40" as="geometry" />
        </mxCell>
        <mxCell id="DM5Adh0Ml4Y8m7HZLW4B-22" value="CRM_cust_info" style="rounded=1;whiteSpace=wrap;html=1;fillColor=#60a917;fontColor=#ffffff;strokeColor=#2D7600;" vertex="1" parent="1">
          <mxGeometry x="450" y="120" width="140" height="40" as="geometry" />
        </mxCell>
        <mxCell id="DM5Adh0Ml4Y8m7HZLW4B-23" value="CRM_prd_info" style="rounded=1;whiteSpace=wrap;html=1;fillColor=#60a917;fontColor=#ffffff;strokeColor=#2D7600;" vertex="1" parent="1">
          <mxGeometry x="450" y="170" width="140" height="40" as="geometry" />
        </mxCell>
        <mxCell id="DM5Adh0Ml4Y8m7HZLW4B-24" value="ERP_cust_az12" style="rounded=1;whiteSpace=wrap;html=1;fillColor=#60a917;fontColor=#ffffff;strokeColor=#2D7600;" vertex="1" parent="1">
          <mxGeometry x="450" y="250" width="140" height="40" as="geometry" />
        </mxCell>
        <mxCell id="DM5Adh0Ml4Y8m7HZLW4B-25" value="ERP_loc_a101" style="rounded=1;whiteSpace=wrap;html=1;fillColor=#60a917;fontColor=#ffffff;strokeColor=#2D7600;" vertex="1" parent="1">
          <mxGeometry x="450" y="310" width="140" height="40" as="geometry" />
        </mxCell>
        <mxCell id="DM5Adh0Ml4Y8m7HZLW4B-26" value="ERP_px_cat_g1v1" style="rounded=1;whiteSpace=wrap;html=1;fillColor=#60a917;fontColor=#ffffff;strokeColor=#2D7600;" vertex="1" parent="1">
          <mxGeometry x="450" y="370" width="140" height="40" as="geometry" />
        </mxCell>
        <mxCell id="DM5Adh0Ml4Y8m7HZLW4B-27" value="Fact Sales" style="rounded=1;whiteSpace=wrap;html=1;fillColor=#d80073;fontColor=#ffffff;strokeColor=#A50040;" vertex="1" parent="1">
          <mxGeometry x="660" y="75" width="140" height="40" as="geometry" />
        </mxCell>
        <mxCell id="DM5Adh0Ml4Y8m7HZLW4B-28" value="DIM_customers" style="rounded=1;whiteSpace=wrap;html=1;fillColor=#d80073;fontColor=#ffffff;strokeColor=#A50040;" vertex="1" parent="1">
          <mxGeometry x="665" y="220" width="140" height="40" as="geometry" />
        </mxCell>
        <mxCell id="DM5Adh0Ml4Y8m7HZLW4B-29" value="DIM_products" style="rounded=1;whiteSpace=wrap;html=1;fillColor=#d80073;fontColor=#ffffff;strokeColor=#A50040;" vertex="1" parent="1">
          <mxGeometry x="680" y="340" width="140" height="40" as="geometry" />
        </mxCell>
        <mxCell id="DM5Adh0Ml4Y8m7HZLW4B-31" value="" style="endArrow=classic;html=1;rounded=0;exitX=0.963;exitY=0.54;exitDx=0;exitDy=0;exitPerimeter=0;entryX=0;entryY=0.5;entryDx=0;entryDy=0;" edge="1" parent="1" source="DM5Adh0Ml4Y8m7HZLW4B-7" target="DM5Adh0Ml4Y8m7HZLW4B-15">
          <mxGeometry width="50" height="50" relative="1" as="geometry">
            <mxPoint x="400" y="260" as="sourcePoint" />
            <mxPoint x="450" y="210" as="targetPoint" />
          </mxGeometry>
        </mxCell>
        <mxCell id="DM5Adh0Ml4Y8m7HZLW4B-35" value="" style="edgeStyle=elbowEdgeStyle;elbow=horizontal;endArrow=classic;html=1;curved=0;rounded=0;endSize=8;startSize=8;entryX=0;entryY=0.5;entryDx=0;entryDy=0;exitX=0.963;exitY=0.36;exitDx=0;exitDy=0;exitPerimeter=0;" edge="1" parent="1" source="DM5Adh0Ml4Y8m7HZLW4B-7" target="DM5Adh0Ml4Y8m7HZLW4B-14">
          <mxGeometry width="50" height="50" relative="1" as="geometry">
            <mxPoint x="400" y="260" as="sourcePoint" />
            <mxPoint x="450" y="210" as="targetPoint" />
          </mxGeometry>
        </mxCell>
        <mxCell id="DM5Adh0Ml4Y8m7HZLW4B-39" value="" style="edgeStyle=elbowEdgeStyle;elbow=horizontal;endArrow=classic;html=1;curved=0;rounded=0;endSize=8;startSize=8;exitX=0.956;exitY=0.295;exitDx=0;exitDy=0;exitPerimeter=0;entryX=0;entryY=0.5;entryDx=0;entryDy=0;" edge="1" parent="1" source="DM5Adh0Ml4Y8m7HZLW4B-1" target="DM5Adh0Ml4Y8m7HZLW4B-16">
          <mxGeometry width="50" height="50" relative="1" as="geometry">
            <mxPoint x="400" y="260" as="sourcePoint" />
            <mxPoint x="450" y="210" as="targetPoint" />
          </mxGeometry>
        </mxCell>
        <mxCell id="DM5Adh0Ml4Y8m7HZLW4B-40" value="" style="endArrow=classic;html=1;rounded=0;exitX=1.028;exitY=0.48;exitDx=0;exitDy=0;exitPerimeter=0;entryX=0;entryY=0.5;entryDx=0;entryDy=0;" edge="1" parent="1" source="DM5Adh0Ml4Y8m7HZLW4B-8" target="DM5Adh0Ml4Y8m7HZLW4B-18">
          <mxGeometry width="50" height="50" relative="1" as="geometry">
            <mxPoint x="400" y="260" as="sourcePoint" />
            <mxPoint x="450" y="210" as="targetPoint" />
          </mxGeometry>
        </mxCell>
        <mxCell id="DM5Adh0Ml4Y8m7HZLW4B-41" value="" style="edgeStyle=elbowEdgeStyle;elbow=horizontal;endArrow=classic;html=1;curved=0;rounded=0;endSize=8;startSize=8;exitX=0.947;exitY=0.34;exitDx=0;exitDy=0;exitPerimeter=0;entryX=0;entryY=0.5;entryDx=0;entryDy=0;" edge="1" parent="1" source="DM5Adh0Ml4Y8m7HZLW4B-8" target="DM5Adh0Ml4Y8m7HZLW4B-17">
          <mxGeometry width="50" height="50" relative="1" as="geometry">
            <mxPoint x="160" y="320" as="sourcePoint" />
            <mxPoint x="450" y="210" as="targetPoint" />
          </mxGeometry>
        </mxCell>
        <mxCell id="DM5Adh0Ml4Y8m7HZLW4B-42" value="" style="edgeStyle=elbowEdgeStyle;elbow=horizontal;endArrow=classic;html=1;curved=0;rounded=0;endSize=8;startSize=8;exitX=1;exitY=0.75;exitDx=0;exitDy=0;" edge="1" parent="1" source="DM5Adh0Ml4Y8m7HZLW4B-1" target="DM5Adh0Ml4Y8m7HZLW4B-19">
          <mxGeometry width="50" height="50" relative="1" as="geometry">
            <mxPoint x="400" y="260" as="sourcePoint" />
            <mxPoint x="450" y="210" as="targetPoint" />
          </mxGeometry>
        </mxCell>
        <mxCell id="DM5Adh0Ml4Y8m7HZLW4B-43" value="" style="endArrow=classic;html=1;rounded=0;" edge="1" parent="1" source="DM5Adh0Ml4Y8m7HZLW4B-14" target="DM5Adh0Ml4Y8m7HZLW4B-21">
          <mxGeometry width="50" height="50" relative="1" as="geometry">
            <mxPoint x="400" y="260" as="sourcePoint" />
            <mxPoint x="450" y="210" as="targetPoint" />
          </mxGeometry>
        </mxCell>
        <mxCell id="DM5Adh0Ml4Y8m7HZLW4B-44" value="" style="endArrow=classic;html=1;rounded=0;" edge="1" parent="1" source="DM5Adh0Ml4Y8m7HZLW4B-15" target="DM5Adh0Ml4Y8m7HZLW4B-22">
          <mxGeometry width="50" height="50" relative="1" as="geometry">
            <mxPoint x="400" y="260" as="sourcePoint" />
            <mxPoint x="450" y="210" as="targetPoint" />
          </mxGeometry>
        </mxCell>
        <mxCell id="DM5Adh0Ml4Y8m7HZLW4B-45" value="" style="endArrow=classic;html=1;rounded=0;" edge="1" parent="1" source="DM5Adh0Ml4Y8m7HZLW4B-16" target="DM5Adh0Ml4Y8m7HZLW4B-23">
          <mxGeometry width="50" height="50" relative="1" as="geometry">
            <mxPoint x="400" y="260" as="sourcePoint" />
            <mxPoint x="450" y="210" as="targetPoint" />
          </mxGeometry>
        </mxCell>
        <mxCell id="DM5Adh0Ml4Y8m7HZLW4B-46" value="" style="endArrow=classic;html=1;rounded=0;" edge="1" parent="1" source="DM5Adh0Ml4Y8m7HZLW4B-17" target="DM5Adh0Ml4Y8m7HZLW4B-24">
          <mxGeometry width="50" height="50" relative="1" as="geometry">
            <mxPoint x="400" y="260" as="sourcePoint" />
            <mxPoint x="450" y="210" as="targetPoint" />
          </mxGeometry>
        </mxCell>
        <mxCell id="DM5Adh0Ml4Y8m7HZLW4B-48" value="" style="endArrow=classic;html=1;rounded=0;" edge="1" parent="1" source="DM5Adh0Ml4Y8m7HZLW4B-18" target="DM5Adh0Ml4Y8m7HZLW4B-25">
          <mxGeometry width="50" height="50" relative="1" as="geometry">
            <mxPoint x="400" y="260" as="sourcePoint" />
            <mxPoint x="450" y="210" as="targetPoint" />
          </mxGeometry>
        </mxCell>
        <mxCell id="DM5Adh0Ml4Y8m7HZLW4B-49" value="" style="endArrow=classic;html=1;rounded=0;" edge="1" parent="1" source="DM5Adh0Ml4Y8m7HZLW4B-19" target="DM5Adh0Ml4Y8m7HZLW4B-26">
          <mxGeometry width="50" height="50" relative="1" as="geometry">
            <mxPoint x="400" y="260" as="sourcePoint" />
            <mxPoint x="450" y="210" as="targetPoint" />
          </mxGeometry>
        </mxCell>
        <mxCell id="DM5Adh0Ml4Y8m7HZLW4B-50" value="" style="endArrow=classic;html=1;rounded=0;" edge="1" parent="1" source="DM5Adh0Ml4Y8m7HZLW4B-21" target="DM5Adh0Ml4Y8m7HZLW4B-27">
          <mxGeometry width="50" height="50" relative="1" as="geometry">
            <mxPoint x="400" y="260" as="sourcePoint" />
            <mxPoint x="450" y="210" as="targetPoint" />
          </mxGeometry>
        </mxCell>
        <mxCell id="DM5Adh0Ml4Y8m7HZLW4B-51" value="" style="endArrow=classic;html=1;rounded=0;exitX=1;exitY=0.5;exitDx=0;exitDy=0;" edge="1" parent="1" source="DM5Adh0Ml4Y8m7HZLW4B-22" target="DM5Adh0Ml4Y8m7HZLW4B-28">
          <mxGeometry width="50" height="50" relative="1" as="geometry">
            <mxPoint x="400" y="260" as="sourcePoint" />
            <mxPoint x="450" y="210" as="targetPoint" />
          </mxGeometry>
        </mxCell>
        <mxCell id="DM5Adh0Ml4Y8m7HZLW4B-52" value="" style="endArrow=classic;html=1;rounded=0;exitX=1;exitY=0.5;exitDx=0;exitDy=0;entryX=0;entryY=0.5;entryDx=0;entryDy=0;" edge="1" parent="1" source="DM5Adh0Ml4Y8m7HZLW4B-23" target="DM5Adh0Ml4Y8m7HZLW4B-29">
          <mxGeometry width="50" height="50" relative="1" as="geometry">
            <mxPoint x="400" y="260" as="sourcePoint" />
            <mxPoint x="450" y="210" as="targetPoint" />
          </mxGeometry>
        </mxCell>
        <mxCell id="DM5Adh0Ml4Y8m7HZLW4B-53" value="" style="endArrow=classic;html=1;rounded=0;entryX=0;entryY=0.75;entryDx=0;entryDy=0;jumpStyle=gap;" edge="1" parent="1" source="DM5Adh0Ml4Y8m7HZLW4B-24" target="DM5Adh0Ml4Y8m7HZLW4B-28">
          <mxGeometry width="50" height="50" relative="1" as="geometry">
            <mxPoint x="400" y="260" as="sourcePoint" />
            <mxPoint x="450" y="210" as="targetPoint" />
          </mxGeometry>
        </mxCell>
        <mxCell id="DM5Adh0Ml4Y8m7HZLW4B-54" value="" style="endArrow=classic;html=1;rounded=0;entryX=0;entryY=1;entryDx=0;entryDy=0;exitX=1;exitY=0.5;exitDx=0;exitDy=0;jumpStyle=gap;" edge="1" parent="1" source="DM5Adh0Ml4Y8m7HZLW4B-25" target="DM5Adh0Ml4Y8m7HZLW4B-28">
          <mxGeometry width="50" height="50" relative="1" as="geometry">
            <mxPoint x="400" y="260" as="sourcePoint" />
            <mxPoint x="450" y="210" as="targetPoint" />
          </mxGeometry>
        </mxCell>
        <mxCell id="DM5Adh0Ml4Y8m7HZLW4B-55" value="" style="endArrow=classic;html=1;rounded=0;entryX=0;entryY=0.75;entryDx=0;entryDy=0;exitX=0.938;exitY=0.895;exitDx=0;exitDy=0;exitPerimeter=0;" edge="1" parent="1" source="DM5Adh0Ml4Y8m7HZLW4B-4" target="DM5Adh0Ml4Y8m7HZLW4B-29">
          <mxGeometry width="50" height="50" relative="1" as="geometry">
            <mxPoint x="400" y="260" as="sourcePoint" />
            <mxPoint x="450" y="210" as="targetPoint" />
          </mxGeometry>
        </mxCell>
      </root>
    </mxGraphModel>
  </diagram>
</mxfile>
